<?xml version="1.0" encoding="utf-8"?>
<?xml-stylesheet type="text/xsl" href="rss1.xsl"?>
<rss version="2.0" xmlns:atom="http://www.w3.org/2005/Atom" xmlns:content="http://purl.org/rss/1.0/modules/content/" xmlns:dc="http://purl.org/dc/elements/1.1/" xmlns:media="http://search.yahoo.com/mrss/">
<channel>
 <title>Getty</title>
 <link>http://www.gettyimg.com/</link>
 <atom:link href="http://www.gettyimg.com/" rel="self" type="application/rss+xml" />

 
                <item>
                <title><![CDATA[【Albums (lossless)】FLAC - Miranda! - Sin Restricciones (2004) [Qobuz (CD Quality) - 16 bits, 44.1kHz]]]></title>
                <link><![CDATA[https://sharemania.us/threads/miranda-sin-restricciones-2004-qobuz-cd-quality-16-bits-44-1khz.230122/]]></link>
                <description><![CDATA[<article>
<blockquote class="messageText SelectQuoteContainer ugc baseHtml">
<div style="text-align: center"><img src="https://i.postimg.cc/3R0KXMTq/500x500bb-1.png" class="bbCodeImage LbImage" alt="[​IMG]" data-url="https://i.postimg.cc/3R0KXMTq/500x500bb-1.png" style=""> <br>
<a href="https://www.qobuz.com/us-en/album/sin-restricciones-miranda/wig5wp0iblleb" target="_blank" class="externalLink" rel="nofollow"><img src="https://i.postimg.cc/1zLqggzK/iAG-svg.png" class="bbCodeImage LbImage" alt="[​IMG]" data-url="https://i.postimg.cc/1zLqggzK/iAG-svg.png"></a><br>
<span style="font-family: 'Verdana'"><span style="color: rgb(64, 64, 64)"><span style="font-size: 22px"><b>Sin Restricciones</b></span></span><br>
<span style="font-size: 22px"><span style="color: rgb(0, 0, 0)"><b>Miranda!</b></span></span></span><br>
<span style="font-family: 'Arial'"><span style="font-size: 15px"><span style="color: rgb(128, 128, 128)"><b>Latin · September 21st, 2004</b></span></span></span><br>
<div class="ToggleTriggerAnchor bbCodeSpoilerContainer">
<button type="button" class="button bbCodeSpoilerButton ToggleTrigger Tooltip JsOnly" data-target="> .SpoilerTarget"><span>Spoiler: <span class="SpoilerTitle">Tracklist (Tracks Count: 12)</span></span></button>
<div class="SpoilerTarget bbCodeSpoilerText">01. Yo Te Diré<br>
02. Don<br>
03. Quiero<br>
04. Vuelve a Ti<br>
05. El Profe<br>
06. Otra Vez<br>
07. Tu Gurú<br>
08. Hoy<br>
09. El Agente<br>
10. Navidad<br>
11. Traición<br>
12. Uno los Dos</div>
</div>
<div class="ToggleTriggerAnchor bbCodeSpoilerContainer">
<button type="button" class="button bbCodeSpoilerButton ToggleTrigger Tooltip JsOnly" data-target="> .SpoilerTarget"><span>Spoiler: <span class="SpoilerTitle">MediaInfo</span></span></button>
<div class="SpoilerTarget bbCodeSpoilerText"><b>General</b><br>
Format : FLAC<br>
Format/Info : Free Lossless Audio Codec<br>
File size : 23.4 MiB<br>
Duration : 3 min 25 s<br>
Overall bit rate mode : Variable<br>
Overall bit rate : 954 kb/s<br>
Album : Sin Restricciones<br>
Album/Performer : Miranda!<br>
Part : 1<br>
Part/Total : 1<br>
Track name : Yo Te Diré<br>
Track name/Position : 1<br>
Track name/Total : 12<br>
Performer : Miranda!<br>
Composer : Ale Sergi<br>
Genre : América latina<br>
Recorded date : 2004-09-21<br>
ISRC : ARF840400172<br>
Copyright : (C) 2004 Pelo Music S.A. (P) 2004 Pelo Music S.A.<br>
Cover : Yes<br>
Cover type : Cover (front)<br>
Cover MIME : image/jpeg<br>
UPC : 0889845778585<br>
MEDIATYPE : album<br>
ITUNESADVISORY : 1<br>
<b>Audio</b><br>
Format : FLAC<br>
Format/Info : Free Lossless Audio Codec<br>
Duration : 3 min 25 s<br>
Bit rate mode : Variable<br>
Bit rate : 954 kb/s<br>
Channel(s) : 2 channels<br>
Channel layout : L R<br>
Sampling rate : 44.1 kHz<br>
Bit depth : 16 bits<br>
Compression mode : Lossless<br>
Stream size : 23.4 MiB (100%)<br>
MD5 of the unencoded content : 00000000000000000000000000000000</div>
</div>© 2002 Pelo Music S.A.<br>
<span style="font-size: 12px">1 disc(s) - 12 track(s)<br>
Total length: 00:38:25<br>
</span>
<div class="bbCodeBlock bbCodeVfcHH HiddenContent">
<div class="attribution type">Hidden Content:</div>
<blockquote>You must either reply or click 'Like' to see the hidden information contained here.</blockquote>
</div><br>
<i><b><span style="text-decoration: underline"><span style="font-family: 'Arial'"><span style="font-size: 18px">IF THE FILES ARE DELETED OR MISSING DO NOT HESITATE TO CONTACT ME.</span></span></span></b></i>​</div>
<div class="messageTextEndMarker">&nbsp;</div>
</blockquote>
</article>]]></description>
                <author><![CDATA[mmmmmaaaaxxxxx]]></author>
                </item>

                
                <item>
                <title><![CDATA[【Cinema Center】MOVIE - Strange.Way.of.Life.2023.UPSCALE.2160p.WEB-DL.DD5.1.H.265-DontBeAStranger]]></title>
                <link><![CDATA[https://sharemania.us/threads/strange-way-of-life-2023-upscale-2160p-web-dl-dd5-1-h-265-dontbeastranger.230121/]]></link>
                <description><![CDATA[<article>
<blockquote class="messageText SelectQuoteContainer ugc baseHtml">
<img src="https://i.imgur.com/xVpVxCg.jpg" class="bbCodeImage LbImage" alt="[​IMG]" data-url="https://i.imgur.com/xVpVxCg.jpg" style=""><br>
<img src="https://i.imgur.com/yh1cjaE.jpg" class="bbCodeImage LbImage" alt="[​IMG]" data-url="https://i.imgur.com/yh1cjaE.jpg" style=""><br>
<img src="https://i.imgur.com/XLwYWTg.jpg" class="bbCodeImage LbImage" alt="[​IMG]" data-url="https://i.imgur.com/XLwYWTg.jpg" style=""><br>
<br>
<div class="bbCodeBlock bbCodeCode">
<div class="type">Code:</div>
<pre>General
Format                                   : Matroska
Format version                           : Version 4
File size                                : 4.15 GiB
Duration                                 : 31 min 42 s
Overall bit rate                         : 18.7 Mb/s
Frame rate                               : 24.000 FPS

Video
ID                                       : 1
Format                                   : HEVC
Format/Info                              : High Efficiency Video Coding
Format profile                           : Main 10@L5.1@High
Codec ID                                 : V_MPEGH/ISO/HEVC
Duration                                 : 31 min 42 s
Bit rate                                 : 17.9 Mb/s
Width                                    : 3 832 pixels
Height                                   : 1 600 pixels
Display aspect ratio                     : 2.40:1
Frame rate mode                          : Constant
Frame rate                               : 24.000 FPS
Color space                              : YUV
Chroma subsampling                       : 4:2:0 (Type 0)
Bit depth                                : 10 bits
Bits/(Pixel*Frame)                       : 0.122
Stream size                              : 3.96 GiB (96%)
Default                                  : Yes
Forced                                   : No
Color range                              : Limited
Color primaries                          : BT.709
Transfer characteristics                 : BT.709
Matrix coefficients                      : BT.709

Audio
ID                                       : 2
Format                                   : AC-3
Format/Info                              : Audio Coding 3
Commercial name                          : Dolby Digital
Codec ID                                 : A_AC3
Duration                                 : 31 min 42 s
Bit rate mode                            : Constant
Bit rate                                 : 448 kb/s
Channel(s)                               : 6 channels
Channel layout                           : L R C LFE Ls Rs
Sampling rate                            : 48.0 kHz
Frame rate                               : 31.250 FPS (1536 SPF)
Compression mode                         : Lossy
Delay relative to video                  : -5 ms
Stream size                              : 102 MiB (2%)
Title                                    : Surround
Language                                 : English
Service kind                             : Complete Main
Default                                  : Yes
Forced                                   : No

Text #1
ID                                       : 3
Format                                   : ASS
Codec ID                                 : S_TEXT/ASS
Codec ID/Info                            : Advanced Sub Station Alpha
Duration                                 : 17 min 3 s
Compression mode                         : Lossless
Title                                    : English
Language                                 : English
Default                                  : Yes
Forced                                   : Yes

Text #2
ID                                       : 4
Format                                   : ASS
Codec ID                                 : S_TEXT/ASS
Codec ID/Info                            : Advanced Sub Station Alpha
Duration                                 : 27 min 24 s
Compression mode                         : Lossless
Title                                    : English
Language                                 : English
Default                                  : No
Forced                                   : No

Text #3
ID                                       : 5
Format                                   : ASS
Codec ID                                 : S_TEXT/ASS
Codec ID/Info                            : Advanced Sub Station Alpha
Duration                                 : 31 min 40 s
Compression mode                         : Lossless
Title                                    : SDH
Language                                 : English
Default                                  : No
Forced                                   : No

Text #4
ID                                       : 6
Format                                   : ASS
Codec ID                                 : S_TEXT/ASS
Codec ID/Info                            : Advanced Sub Station Alpha
Duration                                 : 27 min 24 s
Compression mode                         : Lossless
Title                                    : Español
Language                                 : Spanish
Default                                  : No
Forced                                   : No

Text #5
ID                                       : 7
Format                                   : ASS
Codec ID                                 : S_TEXT/ASS
Codec ID/Info                            : Advanced Sub Station Alpha
Duration                                 : 27 min 24 s
Compression mode                         : Lossless
Title                                    : Italiano
Language                                 : Italian
Default                                  : No
Forced                                   : No

Text #6
ID                                       : 8
Format                                   : ASS
Codec ID                                 : S_TEXT/ASS
Codec ID/Info                            : Advanced Sub Station Alpha
Duration                                 : 27 min 24 s
Compression mode                         : Lossless
Title                                    : Português
Language                                 : Portuguese
Default                                  : No
Forced                                   : No</pre>
</div><div style="text-align: center">
<div class="bbCodeBlock bbCodeVfcHH HiddenContent">
<div class="attribution type">Hidden Content:</div>
<blockquote>You must reply before you can see the hidden data contained here.</blockquote>
</div></div>
<div class="messageTextEndMarker">&nbsp;</div>
</blockquote>
</article>]]></description>
                <author><![CDATA[Librious]]></author>
                </item>

                </channel></rss>